<svg version="1.1" id="Layer_1" xmlns="http://www.w3.org/2000/svg" xmlns:xlink="http://www.w3.org/1999/xlink" x="0px" y="0px" viewBox="0 0 512 512" style="enable-background:new 0 0 512 512;" xml:space="preserve">
<style type="text/css">
	.st0{fill:#5F2FC9;}
	.st1{fill:#FFFFFF;}
	.st2{fill:url(#SVGID_1_);}
	.st3{fill:url(#SVGID_2_);}
	.st4{fill:#FCC047;}
	.st5{fill:#FCD765;}
	.st6{fill:url(#SVGID_3_);}
</style>
<g>
<path class="st0" d="M488.6,164.6c-0.1-0.2-0.2-0.4-0.2-0.5c-0.1-0.2-0.1-0.4-0.2-0.6c-2.1-4.4-6.4-7-11.1-7.2
		c-4.6-10.8-10.7-21.7-18.4-32.6c-0.1-0.2-0.2-0.3-0.4-0.5c-4.1-4.6-9.9-6.1-14.8-3.8c-53.7,21.3-108.6,41.5-163.5,60.1
		c-8.2,2.8-16.4,5.5-24.6,8.2L219,199.5c-7.7,2.5-15.5,4.9-23.2,7.3c-57.1,17.8-115.1,34.1-173,48.8c-5.4,1-9.5,5.9-9.5,11.5
		c-1.2,15.6,1.2,28.8,3.7,38.2c-3.6,3-5.3,7.7-4,12.2c1.2,6.8,11.6,43,39.2,71c2.4,3.2,6.2,5,10,5c1.6,0,3.3-0.3,4.8-1
		c50.4-20,99.9-38.2,147.6-54.5c2.5-0.9,5-1.7,7.4-2.5l37.2-12.2l0.5-0.2l7.3-2.4l4.9-1.6l9.9-3.2l1.3-0.4l11.8-3.9h0l0.9-0.3
		l7.6-2.5l5.3-1.6l7.1-2.2c54.1-17.1,112-33.5,172-48.7c0.1,0,0.2-0.1,0.3-0.1l0.5-0.2c4.4-1.4,7.5-4.8,8.6-9.3
		c0-0.1,0.1-0.3,0.1-0.4C503.4,210.2,493.3,177.1,488.6,164.6z M23.4,267.8v-0.5c0-0.9,0.8-1.7,1.3-1.7c0.2,0,0.3-0.1,0.5-0.1
		c56.4-14.4,113.1-30.3,168.8-47.6c9.4-2.9,18.8-5.8,28.2-8.8l36.5-11.8c9.7-3.2,19.4-6.4,29.1-9.7c53.7-18.3,107.3-38,159.7-58.9
		c0.1,0,0.2-0.1,0.3-0.1c0.9-0.4,2.1,0.3,3,1.2c6.8,9.6,12.3,19.3,16.5,28.9l-152.7,49.5l-11.4,3.7l-14.6,4.7l-78,25.2l-17.4,5.6
		l-10.4,3.4L26.4,301.5C24.3,292.9,22.3,281.3,23.4,267.8z M487.7,244.4c-0.3,1-0.9,1.7-2,2l-0.3,0.1
		c-59.2,15.1-116.4,31.3-169.8,48.1c-0.9,0.3-1.7,0.5-2.6,0.8l-12.5,3.9L234.3,321l-0.4,0.1l-14.8,4.8h0L219,326
		c-25,8.5-50.7,17.5-76.6,27.1c-26,9.6-52.4,19.6-79,30.1c-0.1,0-0.2,0.1-0.3,0.1c-0.8,0.4-2.2,0-2.7-0.9c-0.2-0.2-0.4-0.5-0.6-0.7
		C34,356,23.8,321.4,22.9,316c0-0.4-0.1-0.7-0.2-1c-0.3-0.9,0.6-1.9,1.7-2.3l157.2-50.9l28.2-9.1l85.7-27.8l10.8-3.5l17.3-5.6
		l151.9-49.2l0.2-0.1c1.3-0.4,2.7,0.1,3.3,1.1c0,0.1,0.1,0.3,0.2,0.4C483.6,179.8,493.2,210.8,487.7,244.4z" id="id_191"></path>
<path class="st1" d="M223.1,311.4c-1.9-1-4.2-1.4-6.2-1.3c-5.4,0.9-10.1-1.9-11.8-6.2c-8.8,10.2-8.8,24.1-8.8,24.1
		c0-34.7-34.6-34.7-34.6-34.7c13.2,0,21.3-5,26.4-11.3c0,0,0,0,0,0c-0.2-1.6,0-3.2,0.4-4.7c1.7-3.9,0-9.1-3.7-11.4
		c-0.2-0.1-0.4-0.3-0.5-0.4c-1.2-1.1-2.1-2.4-2.7-3.7L24.4,312.7c-1.1,0.4-2,1.4-1.7,2.3c0.1,0.3,0.2,0.6,0.2,1
		c0.9,5.4,11.1,40,36.9,65.7c0.2,0.2,0.4,0.5,0.6,0.7c0.5,0.9,1.9,1.3,2.7,0.9c0.1,0,0.2-0.1,0.3-0.1c26.6-10.5,53-20.6,79-30.1
		c26-9.6,51.6-18.6,76.6-27.1l0.2-0.1h0l5.2-13.7C224,311.9,223.6,311.7,223.1,311.4z M174.3,334.3c0-12.6-12.6-12.6-12.6-12.6
		c12.6,0,12.6-12.6,12.6-12.6c0,12.6,12.6,12.6,12.6,12.6C174.3,321.7,174.3,334.3,174.3,334.3z" id="id_192"></path>
<path class="st1" d="M487.7,244.4c-0.3,1-0.9,1.7-2,2l-0.3,0.1c-59.2,15.1-116.4,31.3-169.8,48.1c1.1-2,1.6-4.4,1.3-6.7
		c0-2,0.4-4.2,1.4-6.1c1-1.9,2.5-3.5,4.6-4.5c4.9-2.6,7.1-7.9,5.4-13.2c-0.3-1.3-0.6-2-1-2.6c-0.4-0.7-0.8-1.4-1-2.1
		c-1.1-3.4-0.1-7.1,2.4-9.9c2.5-3,3.1-7.1,2-10.6c-0.6-1.9-1.8-3.7-3.5-5c-1.8-1.3-3-3-3.6-4.8c-0.7-2-0.6-4.3-0.1-6.6
		c0.2-0.8,0.4-1.6,0.5-2.5c0.1-1.4-0.1-2.9-0.4-4.2l151.9-49.2l0.2-0.1c1.3-0.4,2.7,0.1,3.3,1.1c0,0.1,0.1,0.3,0.2,0.4
		C483.6,179.8,493.2,210.8,487.7,244.4z" id="id_193"></path>
<path class="st1" d="M467.3,158.7l-152.7,49.5c-1.1-0.5-2.1-1.2-2.9-1.9c-1.6-1.4-2.7-3.2-3.4-5.2c-0.2-0.5-0.3-1-0.4-1.6
		c0-1-0.2-1.9-0.5-2.8c-1.5-4.7-6.3-7.8-11.5-7.1c-2.3,0.2-4.7-0.2-6.7-1.2c-0.5-0.2-1-0.5-1.4-0.8c53.7-18.3,107.3-38,159.7-58.9
		c0.1,0,0.2-0.1,0.3-0.1c0.9-0.4,2.1,0.3,3,1.2C457.6,139.4,463.1,149.1,467.3,158.7z" id="id_194"></path>
<path class="st1" d="M194,217.9c-0.1,0.2-0.2,0.4-0.2,0.6c-1,2-2.5,3.6-4.6,4.6c-4.9,2.6-7.1,7.9-5.5,12.8c0.2,0.6,0.5,1.3,0.8,1.9
		c0.4,0.8,0.8,1.5,1,2.3c0.8,2.5,0.5,5-0.6,7.3c-0.5,1-1,1.9-1.7,2.9c-0.2,0.2-0.3,0.4-0.4,0.6L26.4,301.5c-2.1-8.6-4.1-20.2-3-33.7
		v-0.5c0-0.9,0.8-1.7,1.3-1.7c0.2,0,0.3-0.1,0.5-0.1C81.6,251.1,138.3,235.2,194,217.9z" id="id_195"></path>
<linearGradient id="SVGID_1_" gradientUnits="userSpaceOnUse" x1="291.3089" y1="200.763" x2="298.7055" y2="183.5769" gradientTransform="matrix(1 0 0 -1 0 512)">
<stop offset="0" style="stop-color:#381FA1" id="id_203"></stop>
<stop offset="1" style="stop-color:#5F2FC9" id="id_204"></stop>
</linearGradient>
<path class="st2" d="M337.7,351.7l-26-1.9l-9.8,24.4l-36.7-56.3c1.2-0.6,3.3-3.2,4.2-4.4c0.2-0.2,4.1-9.2,2.5-0.2l8.6-5.3
		c0.4,0,2,7.3,2.4,7.4c2.2,0.6,4.6,0.5,6.7-0.2c2.4-0.8,4.5-2.3,5.9-4.3c0.6-0.9,1.1-1.9,1.4-2.9c1.2-3.7,3.5-6.6,7.2-7.8h0.1
		l4.4,6.7L337.7,351.7z" id="id_196"></path>
<linearGradient id="SVGID_2_" gradientUnits="userSpaceOnUse" x1="241.7514" y1="305.8266" x2="271.5551" y2="214.675" gradientTransform="matrix(1 0 0 -1 0 512)">
<stop offset="0" style="stop-color:#381FA1" id="id_205"></stop>
<stop offset="1" style="stop-color:#5F2FC9" id="id_206"></stop>
</linearGradient>
<path class="st3" d="M327.3,261.5c-0.4-0.7-0.8-1.4-1-2.1c-1.1-3.4-0.1-7.1,2.4-9.9c2.5-3,3.1-7.1,2-10.6c-0.6-1.9-1.8-3.7-3.5-5
		c-1.8-1.3-3-3-3.6-4.8c-0.7-2-0.6-4.3-0.1-6.6c0.2-0.8,0.4-1.6,0.5-2.5c0.1-1.4-0.1-2.9-0.4-4.2c0-0.1,0-0.2-0.1-0.3
		c-1-3.2-3.5-5.9-7.3-6.7c-0.6-0.2-1.1-0.4-1.6-0.6c-1.1-0.5-2.1-1.2-2.9-1.9c-1.6-1.4-2.7-3.2-3.4-5.2c-0.2-0.5-0.3-1-0.4-1.6
		c0-1-0.2-1.9-0.5-2.8c-1.5-4.7-6.3-7.8-11.5-7.1c-2.3,0.2-4.7-0.2-6.7-1.2c-0.5-0.2-1-0.5-1.4-0.8c-1.4-1-2.6-2.3-3.4-4
		c-1-1.8-2.6-3.2-4.4-4.1c-2.5-1.2-5.5-1.5-8.4-0.6c-0.7,0.2-1.3,0.5-1.9,0.8c-0.6,0.3-1.2,0.5-1.7,0.7c-4.1,1.3-8.1,0.9-11-1.7
		c0,0,0,0-0.1-0.1c-3.1-2.3-7.2-2.8-10.8-1.7c-2,0.6-3.8,1.8-5.1,3.5c-1.5,1.6-3.4,2.8-5.4,3.5c-2,0.7-4.2,0.8-6.4,0.4
		c-2.4-0.8-4.9-0.8-7.1-0.1c-3.3,1.1-6.1,3.8-7,7.5c-0.1,0.2-0.1,0.4-0.2,0.6c-1.2,3.3-3.4,5.5-6.7,6.6c-0.9,0.3-1.9,0.5-2.9,0.6
		c-0.7,0.1-1.4,0.3-2.1,0.5c-3.5,1.1-6.2,3.7-7.5,6.8c-0.6,1.6-0.9,3.4-0.7,5.2c0.1,2.1-0.2,4.1-1,5.9c-0.1,0.2-0.2,0.4-0.2,0.6
		c-1,2-2.5,3.6-4.6,4.6c-4.9,2.6-7.1,7.9-5.5,12.8c0.2,0.6,0.5,1.3,0.8,1.9c0.4,0.8,0.8,1.5,1,2.3c0.8,2.5,0.5,5-0.6,7.3
		c-0.5,1-1,1.9-1.7,2.9c-0.2,0.2-0.3,0.4-0.4,0.6c-2.1,2.9-2.6,6.5-1.6,9.8c0.1,0.4,0.3,0.7,0.4,1.1c0.6,1.3,1.5,2.6,2.7,3.7
		c0.1,0.1,0.3,0.3,0.5,0.4c3.7,2.3,5.4,7.5,3.7,11.4c-0.5,1.5-0.6,3.2-0.4,4.7c0,0,0,0,0,0c0.1,0.8,0.3,1.5,0.5,2.3
		c1,3.2,3.5,5.9,7.3,6.7c3.8,0.7,6.6,3.6,7.9,7.6c0.2,0.6,0.3,1.2,0.5,1.8c0,1,0.2,1.9,0.5,2.8c0.1,0.2,0.2,0.5,0.3,0.7
		c1.8,4.3,6.4,7,11.8,6.2c2-0.1,4.3,0.3,6.2,1.3c0.5,0.2,0.9,0.5,1.4,0.8c0.1,0.1,0.2,0.1,0.2,0.2c0.8,0.6,1.5,1.2,2.1,2
		c0.1,0.1,0.1,0.2,0.2,0.2c0.3,0.4,0.5,0.8,0.7,1.3c0.1,0.2,0.2,0.4,0.3,0.5c0.1,0.2,0.2,0.3,0.3,0.5c1.4,2,3.4,3.5,5.6,4.2
		c2.1,0.7,4.5,0.7,6.7,0c0.7-0.2,1.3-0.5,1.9-0.8c0.8-0.4,1.6-0.8,2.4-1c3.8-1.2,7.6-0.3,10.4,2.1c1.1,0.9,2.4,1.5,3.8,1.9
		c0,0,0,0,0,0c1.8,0.5,3.8,0.6,5.7,0.2c0.2,0,0.3-0.1,0.5-0.1c0.3-0.1,0.6-0.1,0.9-0.2c0.6-0.2,1.3-0.5,1.9-0.8c0,0,0,0,0,0
		c1.2-0.6,2.3-1.5,3.2-2.6c0.2-0.2,0.3-0.4,0.5-0.6c0,0,0,0,0.1-0.1c1.3-1.4,2.8-2.3,4.4-2.8c1.8-0.6,3.6-0.7,5.5-0.4
		c0,0,0.1,0,0.1,0c0.4,0,0.8,0.1,1.1,0.2c2.2,0.6,4.6,0.5,6.7-0.2c2.4-0.8,4.5-2.3,5.9-4.3c0.1-0.1,0.1-0.2,0.2-0.3
		c0.5-0.8,0.9-1.7,1.2-2.6c1.2-3.7,3.5-6.6,7.2-7.8h0.1c0.1,0,0.1,0,0.2-0.1c0.7-0.2,1.5-0.4,2.2-0.4c0.9,0,1.8-0.2,2.6-0.5
		c2.7-0.9,4.9-2.9,6.2-5.3c1.1-2,1.6-4.4,1.3-6.7c0-2,0.4-4.2,1.4-6.1c1-1.9,2.5-3.5,4.6-4.5c4.9-2.6,7.1-7.9,5.4-13.2
		C328,262.8,327.7,262.1,327.3,261.5z M209.8,250.2c0-0.7,0-1.4,0-2.1c0-0.7,0.1-1.4,0.2-2.1c0-0.3,0.1-0.7,0.1-1
		c0-0.3,0.1-0.7,0.1-1c0.1-0.3,0.1-0.7,0.2-1c0-0.3,0.1-0.6,0.2-0.9c0,0,0-0.1,0-0.1c0-0.2,0.1-0.5,0.1-0.7
		c4-18.7,20.1-34.1,40.9-36.7c13.2-1.3,25.6,2.7,34.9,10.3c0.7,0.6,1.4,1.2,2.1,1.8c0,0,0,0,0,0c0.3,0.3,0.6,0.6,0.9,0.9
		c0.2,0.2,0.5,0.5,0.7,0.7c0.4,0.4,0.7,0.8,1.1,1.2c0.5,0.5,1,1.1,1.5,1.7c1,1.2,1.9,2.5,2.7,3.7c0,0,0,0,0,0
		c0.2,0.3,0.4,0.6,0.5,0.9c0.2,0.4,0.5,0.8,0.7,1.2c0.1,0.1,0.1,0.2,0.2,0.3c0.1,0.2,0.2,0.4,0.3,0.6c0.1,0.2,0.2,0.5,0.4,0.7
		c2.5,4.8,4.1,10.1,4.5,15.8c1.6,13.1-3,25.7-11.4,35.1c-6.6,7.4-15.6,12.8-25.9,14.9c-1.3,0.3-2.6,0.5-4,0.7
		c-3.6,0.4-7.2,0.3-10.6-0.1c-6.1-0.7-11.9-2.6-17.1-5.5c-12-6.6-20.6-18.4-22.9-32.6c-0.1-0.7-0.2-1.5-0.3-2.2
		c-0.1-0.7-0.1-1.4-0.2-2.1C209.8,251.8,209.8,251,209.8,250.2z" id="id_197"></path>
<path class="st4" d="M290.8,279.5c-6.6,7.4-15.6,12.8-25.9,14.9l0,0c-1.3,0.3-2.6,0.5-4,0.7c-3.6,0.4-7.2,0.3-10.6-0.1
		c-6.1-0.7-11.9-2.6-17.1-5.5c-12-6.6-20.6-18.4-22.9-32.6c-0.1-0.7-0.2-1.5-0.3-2.2c-0.5-4.6-0.2-9.2,0.7-13.5
		c4-18.7,20.1-34.1,40.9-36.7c13.2-1.3,25.6,2.7,34.9,10.3c4.6,3.8,8.5,8.5,11.2,13.8c2.5,4.8,4.1,10.1,4.5,15.8
		C303.8,257.5,299.2,270.1,290.8,279.5z" id="id_198"></path>
<g>
<path class="st5" d="M230.6,293.3c-12.5,0.1-20.5,4.8-25.6,10.6c-8.8,10.2-8.8,24.1-8.8,24.1c0-34.7-34.6-34.7-34.6-34.7
			c13.2,0,21.3-5,26.4-11.3c0,0,0,0,0,0c8.2-10.1,8.2-23.4,8.2-23.4C196.3,291.2,226.9,293.3,230.6,293.3z" id="id_199"></path>
<path class="st5" d="M231,293.3c0,0-0.1,0-0.4,0C230.8,293.3,230.9,293.3,231,293.3z" id="id_200"></path>
<path class="st5" d="M186.9,321.7c-12.6,0-12.6,12.6-12.6,12.6c0-12.6-12.6-12.6-12.6-12.6c12.6,0,12.6-12.6,12.6-12.6
			C174.3,321.7,186.9,321.7,186.9,321.7z" id="id_201"></path>
</g>
<linearGradient id="SVGID_3_" gradientUnits="userSpaceOnUse" x1="244.8466" y1="390.8896" x2="235.4511" y2="362.2332">
<stop offset="0" style="stop-color:#381FA1" id="id_207"></stop>
<stop offset="1" style="stop-color:#5F2FC9" id="id_208"></stop>
</linearGradient>
<path class="st6" d="M265.1,323l-0.2,0.5l-27.1,69.7l-14.3-20.6l-24.9,6.9l16-41.5l0.1-0.3l4.5-11.8h0l5.2-13.7l0-0.1
		c0.9,0.6,1.7,1.4,2.3,2.3c0.1,0.1,0.1,0.2,0.2,0.2c0.2,0.3,0.4,0.6,0.5,1c0.2,0.3,0.3,0.6,0.5,0.8c0.1,0.2,0.2,0.3,0.3,0.5
		c1.5,2.1,3.7,3.5,6,4.1c2,0.5,4.1,0.5,6.2-0.2c0.7-0.2,1.3-0.5,1.9-0.8c0.8-0.4,1.6-0.8,2.4-1c3.8-1.2,7.6-0.3,10.4,2.1
		c1.1,0.9,2.4,1.5,3.8,1.9c0.2,0,0.5,0.1,0.8,0.1C261.5,323.4,263.3,323.4,265.1,323z" id="id_202"></path>
</g>
</svg>