<svg width="201" height="37" viewBox="0 0 201 37" fill="none" xmlns="http://www.w3.org/2000/svg">
<g filter="url(#filter0_d)">
<g clip-path="url(#clip0)">
<path d="M29.8744 22.8485C30.7423 21.6402 31.4474 20.322 31.9356 18.839C32.4238 17.411 32.6408 15.8731 32.6408 14.2803C32.6408 12.303 32.3153 10.4905 31.6102 8.73295C30.905 6.97538 29.9286 5.49242 28.681 4.17424C27.4334 2.85606 25.9146 1.86742 24.1788 1.09848C22.3887 0.38447 20.4359 0 18.3747 0C16.2591 0 14.3064 0.38447 12.5705 1.15341C10.8347 1.92235 9.31591 2.96591 8.01405 4.28409C6.7122 5.60227 5.73581 7.14015 5.03064 8.8428C4.32546 10.5455 4 12.4129 4 14.3902C4 16.3674 4.32546 18.1799 5.03064 19.9375C5.73581 21.6951 6.7122 23.178 7.95981 24.4962C9.20742 25.8144 10.7263 26.803 12.4621 27.572C14.1979 28.3409 16.1506 28.7254 18.2662 28.7254C19.8935 28.7254 21.3581 28.5057 22.7684 28.0114C24.1245 27.572 25.4264 26.9129 26.6197 26.089L29.9286 29.0549L33.0205 25.5947L29.8744 22.8485ZM27.2164 17.1913C26.9994 18.0701 26.6197 18.8939 26.1858 19.608L21.4666 15.2689L18.3747 18.839L23.0939 22.9034C22.4429 23.3428 21.7378 23.6723 20.9241 23.892C20.1647 24.1117 19.2968 24.2216 18.3747 24.2216C17.0186 24.2216 15.7709 23.947 14.6318 23.4527C13.4927 22.9034 12.5163 22.1894 11.7026 21.3106C10.889 20.4318 10.2381 19.3883 9.8041 18.1799C9.37015 16.9716 9.09893 15.7083 9.09893 14.3352C9.09893 12.9621 9.31591 11.6989 9.8041 10.4905C10.2381 9.2822 10.889 8.23864 11.7026 7.35985C12.5163 6.48106 13.4927 5.76705 14.6318 5.27273C15.7709 4.77841 17.0186 4.50379 18.3747 4.50379C19.7307 4.50379 20.9784 4.77841 22.1175 5.27273C23.2566 5.82197 24.233 6.53598 25.0467 7.41477C25.8603 8.29356 26.5112 9.33712 26.9452 10.5455C27.3791 11.7538 27.6504 13.017 27.6504 14.3902C27.5961 15.3239 27.4876 16.2576 27.2164 17.1913Z" fill="#BAA677"/>
<path d="M58.1896 25.8692C57.4301 26.4184 56.6707 26.9128 55.8028 27.3522C54.9349 27.7916 54.0128 28.0662 52.9821 28.2859C51.9515 28.5056 50.8124 28.6154 49.619 28.6154C47.6662 28.6154 45.8762 28.2309 44.2489 27.5719C42.6215 26.8578 41.2112 25.8692 40.0178 24.6609C38.8245 23.4525 37.9023 21.9696 37.1971 20.2669C36.492 18.5643 36.1665 16.7518 36.1665 14.8294C36.1665 12.9071 36.492 11.1495 37.1429 9.44686C37.7938 7.74421 38.7702 6.31618 39.9636 5.05292C41.1569 3.78966 42.6215 2.80103 44.2489 2.08701C45.9304 1.373 47.7205 0.988525 49.7817 0.988525C50.9751 0.988525 52.1142 1.09837 53.0906 1.31807C54.067 1.53777 54.9892 1.81239 55.8028 2.19686C56.6165 2.58133 57.3759 3.02072 58.0811 3.51504C58.7862 4.00936 59.4372 4.5586 60.0881 5.21769L57.1589 8.62299C56.1283 7.63436 54.9892 6.81049 53.7958 6.20633C52.6024 5.60216 51.2463 5.27262 49.7817 5.27262C48.5341 5.27262 47.3408 5.54724 46.3101 6.04155C45.2252 6.53587 44.3031 7.19496 43.5437 8.07375C42.7843 8.95254 42.1333 9.94118 41.7536 11.0946C41.3197 12.248 41.1027 13.4563 41.1027 14.7745C41.1027 16.0927 41.3197 17.3559 41.7536 18.5094C42.1876 19.6628 42.7843 20.7063 43.5437 21.5302C44.3031 22.409 45.2252 23.0681 46.3101 23.5624C47.395 24.0567 48.5341 24.3313 49.7817 24.3313C51.4091 24.3313 52.7652 24.0018 53.9585 23.3976C55.0976 22.7934 56.2368 21.9147 57.3759 20.8711L60.3593 23.9469C59.6541 24.6609 58.949 25.32 58.1896 25.8692Z" fill="white"/>
<path d="M83.793 5.71207H68.8759V12.5776H82.1114V16.8068H68.8759V23.9469H84.0099V28.1761H64.2651V1.42798H83.793V5.71207Z" fill="white"/>
<path d="M107.009 1.42798H111.62V28.1761H107.715L93.1771 9.1723V28.1761H88.5664V1.42798H92.9059L107.009 19.9374V1.42798Z" fill="white"/>
<path d="M128.598 28.1761H123.933V5.82192H115.58V1.42798H137.006V5.82192H128.598V28.1761Z" fill="white"/>
<path d="M156.263 18.07C157.185 17.7954 158.053 17.4659 158.812 16.9715C159.571 16.4772 160.222 15.928 160.819 15.2689C161.362 14.6098 161.795 13.8409 162.121 12.9621C162.446 12.0833 162.609 11.0946 162.609 9.94124C162.609 8.62305 162.392 7.46965 161.904 6.42608C161.47 5.38252 160.819 4.50374 159.951 3.7348C159.083 3.02078 158.053 2.47154 156.859 2.03215C155.666 1.64768 154.256 1.42798 152.791 1.42798H141.02V28.1761H145.631V18.839H151.435L157.944 28.1761H163.423L156.263 18.07ZM145.577 14.7196V5.71207H152.357C154.093 5.71207 155.449 6.09654 156.425 6.86548C157.402 7.63442 157.89 8.7329 157.89 10.2159C157.89 11.589 157.402 12.6874 156.425 13.5113C155.449 14.3352 154.093 14.7196 152.466 14.7196H145.577Z" fill="white"/>
<path d="M182.463 9.83135C182.626 10.2158 182.951 10.5454 183.439 10.8749C183.927 11.2045 184.524 11.534 185.392 11.8086C186.206 12.0832 187.236 12.3579 188.538 12.6874C189.949 13.017 191.142 13.4564 192.227 13.8957C193.312 14.3351 194.18 14.8844 194.885 15.4885C195.59 16.0927 196.132 16.8617 196.512 17.6855C196.892 18.5094 197.054 19.498 197.054 20.5965C197.054 21.8598 196.837 23.0132 196.349 24.0018C195.861 24.9904 195.264 25.8143 194.397 26.5283C193.583 27.2423 192.606 27.7367 191.413 28.1211C190.274 28.4507 188.972 28.6704 187.616 28.6704C185.555 28.6704 183.602 28.3408 181.758 27.6268C179.913 26.9128 178.178 25.8692 176.604 24.3863L179.371 21.0359C180.673 22.1344 181.975 23.0132 183.276 23.6173C184.578 24.2215 186.043 24.4961 187.725 24.4961C189.135 24.4961 190.274 24.1666 191.142 23.5624C192.01 22.9582 192.389 22.1344 192.389 21.0908C192.389 20.5965 192.281 20.1571 192.118 19.7726C191.956 19.3882 191.63 19.0586 191.196 18.7291C190.762 18.3995 190.165 18.1249 189.406 17.8503C188.647 17.5757 187.616 17.301 186.423 16.9715C185.012 16.642 183.765 16.2575 182.68 15.873C181.595 15.4885 180.673 14.9393 179.913 14.3351C179.154 13.731 178.612 12.962 178.232 12.1382C177.852 11.2594 177.635 10.2158 177.635 8.95256C177.635 7.79915 177.852 6.70067 178.286 5.76696C178.72 4.83324 179.371 4.00938 180.13 3.29537C180.89 2.58135 181.866 2.08703 182.951 1.70256C184.036 1.31809 185.284 1.15332 186.585 1.15332C188.538 1.15332 190.274 1.42794 191.793 2.03211C193.366 2.58135 194.776 3.46014 196.132 4.55862L193.637 8.1287C192.444 7.24991 191.25 6.5359 190.057 6.0965C188.864 5.60218 187.67 5.38249 186.477 5.38249C185.121 5.38249 184.036 5.71203 183.331 6.3162C182.571 6.92037 182.192 7.68931 182.192 8.56809C182.192 8.95256 182.3 9.44688 182.463 9.83135Z" fill="white"/>
<path d="M172.319 1.42798H167.654V28.1761H172.319V1.42798Z" fill="white"/>
</g>
</g>
<defs>
<filter id="filter0_d" x="0" y="0" width="201" height="37" filterUnits="userSpaceOnUse" color-interpolation-filters="sRGB">
<feFlood flood-opacity="0" result="BackgroundImageFix"/>
<feColorMatrix in="SourceAlpha" type="matrix" values="0 0 0 0 0 0 0 0 0 0 0 0 0 0 0 0 0 0 127 0"/>
<feOffset dy="4"/>
<feGaussianBlur stdDeviation="2"/>
<feColorMatrix type="matrix" values="0 0 0 0 0 0 0 0 0 0 0 0 0 0 0 0 0 0 0.25 0"/>
<feBlend mode="normal" in2="BackgroundImageFix" result="effect1_dropShadow"/>
<feBlend mode="normal" in="SourceGraphic" in2="effect1_dropShadow" result="shape"/>
</filter>
<clipPath id="clip0">
<rect x="4" width="193" height="29" fill="white"/>
</clipPath>
</defs>
</svg>
